<svg width="454" height="454" viewBox="0 0 454 454" fill="none" xmlns="http://www.w3.org/2000/svg">
  <circle cx="227" cy="227" r="227" fill="black"/>
    <g clip-path="url(#clip0_2135_2)" transform="translate(0, 60), scale(1.8)">
    <path d="M176.489 63.2673L169.58 77.0013C169.152 77.8368 168.5 78.5372 167.698 79.025C166.895 79.5127 165.973 79.7688 165.034 79.7647H116.676C114.649 79.7651 112.663 80.3302 110.94 81.3968C109.217 82.4634 107.825 83.9891 106.921 85.8027L93.1045 113.312C92.6758 114.148 92.0242 114.848 91.2219 115.336C90.4195 115.824 89.4977 116.08 88.5588 116.076H68.6488C68.0292 116.074 67.4202 115.915 66.8793 115.613C66.3383 115.31 65.8832 114.875 65.557 114.349C65.2307 113.822 65.044 113.221 65.0144 112.602C64.9849 111.983 65.1135 111.367 65.3881 110.811L88.8765 63.9305C89.7806 62.1169 91.1723 60.5911 92.8954 59.5246C94.6185 58.458 96.6047 57.8929 98.6312 57.8925H173.242C173.877 57.8825 174.504 58.0392 175.06 58.347C175.615 58.6548 176.081 59.1031 176.409 59.6469C176.738 60.1908 176.918 60.8113 176.932 61.4466C176.946 62.0818 176.793 62.7096 176.489 63.2673V63.2673Z" fill="white"/>
    <path d="M176.487 99.6312L169.579 113.365C169.15 114.201 168.498 114.901 167.696 115.389C166.894 115.877 165.972 116.133 165.033 116.129H145.095C143.299 116.129 141.539 116.629 140.011 117.574C138.484 118.518 137.249 119.869 136.446 121.476L129.62 135.127C129.191 135.964 128.537 136.666 127.732 137.154C126.927 137.642 126.002 137.897 125.061 137.89H105.013C104.393 137.889 103.784 137.729 103.243 137.427C102.702 137.125 102.247 136.69 101.921 136.163C101.595 135.637 101.408 135.035 101.378 134.417C101.349 133.798 101.478 133.181 101.752 132.626L117.932 100.281C118.838 98.4695 120.23 96.9466 121.953 95.8826C123.676 94.8186 125.661 94.2554 127.686 94.2564H173.281C173.913 94.2536 174.535 94.4157 175.085 94.7265C175.635 95.0373 176.095 95.4862 176.418 96.0289C176.742 96.5715 176.918 97.1892 176.93 97.8209C176.942 98.4526 176.79 99.0766 176.487 99.6312V99.6312Z" fill="white"/>
    </g>
  <defs>
    <clipPath id="a">
      <rect width="454" height="454" fill="white" />
    </clipPath>
  </defs>
</svg>
