<svg width="454" height="454" viewBox="0 0 454 454" fill="none" xmlns="http://www.w3.org/2000/svg">
  <circle cx="227" cy="227" r="227" fill="#222B27"/>
  <g clip-path="url(#a)" transform="translate(40, 170), scale(0.8)">
    <path fill-rule="evenodd" clip-rule="evenodd" d="M78.2853 105.877H82.6064C105.785 105.877 124.249 87.0198 124.642 64.2343V3.34183H120.321C106.964 3.34183 94.785 9.6275 86.928 20.2346V13.1632H82.6064C69.2496 13.1632 57.071 19.4489 49.214 30.0559V22.9845H44.8925C22.107 22.9845 3.25 41.4487 3.25 64.6273V105.877H7.17856C20.5356 105.877 32.7141 99.591 40.5712 88.9841V105.877H44.8925C58.2497 105.877 70.4283 99.591 78.2853 88.9841V105.877ZM11.4999 64.6273C11.4999 47.3416 24.4641 33.1988 40.964 31.2345V64.2343C40.5712 81.127 27.9998 95.2698 11.4999 97.2341V64.6273ZM48.821 54.8056C49.214 37.913 61.7852 23.7703 78.2853 21.806V64.2343C78.2853 81.52 65.3211 95.6625 48.821 97.6267V54.8056ZM86.5353 45.3773C86.5353 28.0917 99.4995 13.9489 115.999 11.9846V64.2343C115.999 81.52 103.035 95.6625 86.5353 97.6267V45.3773Z" fill="#fff"/>
    <path d="M351.948 68.051C352.171 70.5807 353.399 72.627 355.631 74.1895C357.863 75.752 360.728 76.533 364.225 76.533C367.573 76.533 370.214 76.0122 372.149 74.9706C374.083 73.8545 375.05 72.292 375.05 70.2831C375.05 68.7951 374.604 67.679 373.711 66.935C372.818 66.1909 371.553 65.6701 369.917 65.3725C368.28 65.0005 365.601 64.591 361.881 64.1446C356.822 63.475 352.618 62.6195 349.269 61.5779C345.921 60.5362 343.243 58.8993 341.234 56.6672C339.225 54.4351 338.22 51.459 338.22 47.7388C338.22 44.0186 339.225 40.7446 341.234 37.9173C343.317 35.0155 346.219 32.7834 349.939 31.2209C353.659 29.6584 357.938 28.8771 362.774 28.8771C370.586 28.9515 376.874 30.6256 381.635 33.8994C386.472 37.1732 389.074 41.7121 389.448 47.5156H374.493C374.269 45.3578 373.116 43.6092 371.033 42.2699C369.024 40.8562 366.42 40.1494 363.22 40.1494C360.244 40.1494 357.826 40.7074 355.966 41.8235C354.18 42.9395 353.287 44.4276 353.287 46.2877C353.287 47.627 353.771 48.6316 354.738 49.3013C355.705 49.9709 356.97 50.4543 358.533 50.7519C360.095 51.0495 362.699 51.3846 366.345 51.7566C374.083 52.6494 379.998 54.3233 384.091 56.7786C388.257 59.1596 390.341 63.2892 390.341 69.1671C390.341 72.8873 389.223 76.161 386.991 78.9884C384.835 81.8157 381.784 84.0108 377.841 85.5733C373.972 87.0614 369.47 87.8054 364.336 87.8054C356.375 87.8054 349.902 86.0567 344.917 82.5598C339.932 78.9884 337.29 74.1521 336.993 68.051H351.948Z" fill="#fff"/>
    <path d="M263.639 35.2387C259.77 31.1465 254.747 29.1003 248.572 29.1003C244.256 29.1003 240.387 29.956 236.965 31.6673C233.616 33.3042 230.901 35.6851 228.817 38.8101C225.618 32.3369 219.926 29.1003 211.742 29.1003C207.724 29.1747 204.375 29.8816 201.697 31.2209C199.018 32.5602 196.712 34.4575 194.777 36.9128L193.327 29.77L170.606 30.8414V45.3769H179.599V87.2472H195.335V55.8858C195.335 51.6448 196.34 48.2966 198.349 45.8413C200.432 43.3115 203.185 42.0467 206.608 42.0467C213.304 42.0467 216.652 46.3995 216.652 55.1047V87.2472H232.389V55.7744C232.389 51.459 233.43 48.1108 235.514 45.7299C237.597 43.2745 240.35 42.0467 243.773 42.0467C250.395 42.0467 253.705 46.3995 253.705 55.1047V87.2472H269.442V55.6626C269.442 46.1389 267.508 39.3309 263.639 35.2387Z" fill="#fff"/>
    <path fill-rule="evenodd" clip-rule="evenodd" d="M288.031 84.234C292.644 86.615 297.964 87.8054 303.99 87.8054C310.017 87.8054 315.3 86.615 319.839 84.234C324.452 81.7787 327.986 78.3561 330.441 73.9663C332.971 69.5017 334.236 64.3308 334.236 58.4529C334.236 52.6494 332.971 47.5156 330.441 43.0513C327.986 38.5869 324.452 35.1643 319.839 32.7834C315.3 30.328 310.017 29.1003 303.99 29.1003C297.964 29.1003 292.644 30.328 288.031 32.7834C283.492 35.1643 279.958 38.5869 277.428 43.0513C274.973 47.5156 273.745 52.6494 273.745 58.4529C273.745 64.2564 274.973 69.3903 277.428 73.8545C279.958 78.3187 283.492 81.7787 288.031 84.234ZM314.37 70.3945C311.84 73.4455 308.38 74.9706 303.99 74.9706C299.675 74.9706 296.215 73.4455 293.611 70.3945C291.081 67.344 289.816 63.3636 289.816 58.4529C289.816 53.5423 291.081 49.5615 293.611 46.5109C296.215 43.4604 299.675 41.9353 303.99 41.9353C308.38 41.9353 311.84 43.4604 314.37 46.5109C316.974 49.5615 318.276 53.5423 318.276 58.4529C318.276 63.3636 316.974 67.344 314.37 70.3945Z" fill="#fff"/>
    <path d="M411.464 74.1895C409.232 72.627 408.007 70.5807 407.782 68.051H392.825C393.122 74.1521 395.766 78.9884 400.75 82.5598C405.736 86.0567 412.208 87.8054 420.171 87.8054C425.303 87.8054 429.805 87.0614 433.674 85.5733C437.619 84.0108 440.668 81.8157 442.828 78.9884C445.06 76.161 446.174 72.8873 446.174 69.1671C446.174 63.2892 444.091 59.1596 439.924 56.7786C435.834 54.3233 429.916 52.6494 422.178 51.7566C418.534 51.3846 415.928 51.0495 414.367 50.7519C412.803 50.4543 411.54 49.9709 410.571 49.3013C409.605 48.6316 409.121 47.627 409.121 46.2877C409.121 44.4276 410.014 42.9395 411.799 41.8235C413.661 40.7074 416.077 40.1494 419.053 40.1494C422.254 40.1494 424.856 40.8562 426.867 42.2699C428.95 43.6092 430.103 45.3578 430.328 47.5156H445.281C444.911 41.7121 442.305 37.1732 437.471 33.8994C432.709 30.6256 426.421 28.9515 418.606 28.8771C413.772 28.8771 409.495 29.6584 405.775 31.2209C402.054 32.7834 399.151 35.0155 397.067 37.9173C395.057 40.7446 394.053 44.0186 394.053 47.7388C394.053 51.459 395.057 54.4351 397.067 56.6672C399.074 58.8993 401.757 60.5362 405.103 61.5779C408.453 62.6195 412.654 63.475 417.714 64.1446C421.434 64.591 424.112 65.0005 425.749 65.3725C427.386 65.6701 428.653 66.1909 429.546 66.935C430.439 67.679 430.885 68.7951 430.885 70.2831C430.885 72.292 429.916 73.8545 427.981 74.9706C426.047 76.0122 423.406 76.533 420.06 76.533C416.561 76.533 413.696 75.752 411.464 74.1895Z" fill="#fff"/>
  </g>
  <defs>
    <clipPath id="a">
      <rect width="454" height="454" fill="white"/>
    </clipPath>
  </defs>
</svg>