<svg width="100%" height="100%" viewBox="0 0 64 64" fill="none" xmlns="http://www.w3.org/2000/svg" transform="scale(0.7)">
<path fill="#6B5ACC" opacity="1.000000" stroke="none" 
	d="M67.500000,68.000000 
	C63.220875,64.054207 59.509796,60.040497 55.651005,56.174221 
	C37.670589,38.158951 19.649345,20.184429 1.321352,2.097666 
	C1.650164,1.666667 2.297838,1.049080 2.950871,1.043362 
	C10.654339,0.975904 18.358608,1.000000 26.629002,1.321350 
	C40.258240,14.397278 53.318684,27.154379 66.394226,39.895985 
	C66.852722,40.342766 67.461349,40.635479 68.000000,41.000000 
	C68.000000,50.000000 68.000000,59.000000 67.500000,68.000000 z"/>
<path fill="#6B5ACC" opacity="1.000000" stroke="none" 
	d="M1.000000,44.460636 
	C7.565988,34.310791 15.372176,32.258919 23.915800,37.976540 
	C28.768848,41.224335 30.866375,48.311348 28.946051,54.972515 
	C27.534376,59.869289 21.720295,63.724350 16.229694,64.066772 
	C9.608150,64.479729 4.776721,62.079578 1.320080,56.124718 
	C1.000000,52.307091 1.000000,48.614182 1.000000,44.460636 z"/>
<path fill="#6B5ACC" opacity="1.000000" stroke="none" 
	d="M68.000000,22.531216 
	C63.567219,19.067213 59.062336,15.211916 54.725166,11.176367 
	C51.437752,8.117564 48.364105,4.829015 45.097668,1.321351 
	C52.591282,1.000000 60.182560,1.000000 68.000000,1.000000 
	C68.000000,8.019200 68.000000,15.040817 68.000000,22.531216 z"/>
</svg>