<svg version="1.1" id="Layer_1" xmlns="http://www.w3.org/2000/svg" xmlns:xlink="http://www.w3.org/1999/xlink" x="0px" y="0px"
	 width="100%" viewBox="0 0 250 148" enable-background="new 0 0 250 148" xml:space="preserve">
<path fill="#073F51" opacity="1.000000" stroke="none" 
	d="
M184.989090,84.995712 
	C185.051773,85.150665 185.114441,85.305611 184.923981,85.864784 
	C185.055496,86.853790 185.440125,87.438568 185.824768,88.023346 
	C186.927582,92.274193 188.030396,96.525047 189.133224,100.775902 
	C189.444839,100.809265 189.756470,100.842621 190.068085,100.875977 
	C193.014450,90.495888 195.960815,80.115791 199.394897,69.277893 
	C202.490189,63.983528 207.047302,66.277710 210.781036,66.137573 
	C211.883789,66.096169 213.071609,68.321236 214.220459,69.507668 
	C214.220459,69.507668 214.292892,69.797348 213.889206,70.103607 
	C212.133133,75.188110 210.780746,79.966362 209.428360,84.744606 
	C209.428360,84.744606 209.443466,84.904793 209.199829,85.009392 
	C208.855286,85.208069 208.655334,85.365372 208.668777,85.386452 
	C208.805664,85.600891 208.977295,85.793144 209.139206,85.991608 
	C205.669144,97.407829 202.199066,108.824051 198.797577,120.014664 
	C198.222809,120.177902 198.064896,120.252960 197.902420,120.264626 
	C182.628143,121.361404 182.636993,121.358757 178.763016,106.509499 
	C177.130722,100.252846 175.474991,94.002037 173.775970,87.763260 
	C173.419540,86.454468 172.826279,85.210175 171.987503,83.002892 
	C168.845825,95.021011 165.836746,105.929367 163.222412,116.931519 
	C162.517197,119.899300 161.278900,120.577248 158.499054,120.479492 
	C144.076660,119.972321 147.283752,123.181488 142.616653,109.184975 
	C140.628387,103.222267 139.132431,97.061485 136.701691,91.290207 
	C134.474106,86.001251 134.844864,81.436424 137.976669,76.815201 
	C139.082077,75.184074 139.894394,73.354324 141.226318,71.182632 
	C141.857971,70.505096 141.952454,70.211456 141.895584,69.869087 
	C141.895584,69.869087 141.969482,69.940811 142.141479,69.796951 
	C142.364914,69.327347 142.416336,69.001595 142.467758,68.675842 
	C142.467758,68.675842 142.553055,68.667221 142.883896,68.574829 
	C143.300415,67.883614 143.386108,67.284805 143.471802,66.685989 
	C143.471802,66.685989 143.560532,66.617294 143.988098,66.692673 
	C144.683792,66.831154 144.951950,66.894249 145.220093,66.957344 
	C145.220093,66.957344 145.375046,67.125793 145.255798,67.601250 
	C145.407349,68.721985 145.678162,69.367271 145.948959,70.012550 
	C146.215134,70.224327 146.387085,70.495804 146.350754,71.377930 
	C146.430634,72.289558 146.624588,72.650253 146.818527,73.010948 
	C146.970612,73.312721 147.122696,73.614494 147.183823,74.522675 
	C147.351669,75.754280 147.610504,76.379478 147.869324,77.004669 
	C148.015244,77.303719 148.161148,77.602768 148.194672,78.581528 
	C148.739319,81.173820 149.396332,83.086403 150.053329,84.998985 
	C150.053329,84.998985 150.319458,85.413414 150.029633,85.833878 
	C150.367294,87.854073 150.994766,89.453812 151.622238,91.053551 
	C151.817993,91.471565 152.013763,91.889587 152.017197,92.741135 
	C152.001266,93.398621 152.177643,93.622589 152.354019,93.846558 
	C152.656738,94.649323 152.959473,95.452087 153.008057,96.732544 
	C153.124741,97.813461 153.495560,98.416672 153.866379,99.019882 
	C153.866379,99.019890 154.114883,99.433182 154.025620,100.015152 
	C154.264862,101.241951 154.593353,101.886787 154.921844,102.531624 
	C155.327042,101.789772 155.732239,101.047913 156.137421,100.306053 
	C156.137421,100.306053 156.041351,100.144051 156.325729,99.928604 
	C156.581436,99.381187 156.552765,99.049210 156.524078,98.717239 
	C156.524078,98.717239 156.541641,98.613358 156.733398,98.641907 
	C157.041489,98.607590 157.157837,98.544724 157.274170,98.481857 
	C157.074402,98.338272 156.874649,98.194687 156.674881,98.051094 
	C156.669449,97.863174 156.664017,97.675262 157.091614,97.115334 
	C157.575790,95.796547 157.626923,94.849770 157.678055,93.903000 
	C157.678055,93.903000 157.630951,93.407425 158.068222,93.078064 
	C158.562958,91.800331 158.620422,90.851974 158.677902,89.903610 
	C158.677902,89.903610 158.630478,89.408401 159.013763,89.098854 
	C159.391693,88.197815 159.386368,87.606323 159.381027,87.014832 
	C159.527176,86.190491 159.673325,85.366150 160.246155,84.023453 
	C160.689697,82.811722 160.706558,82.118347 160.723419,81.424980 
	C160.723419,81.424980 160.666504,81.178459 161.077271,80.853210 
	C161.569382,79.491386 161.650742,78.454803 161.732086,77.418228 
	C161.732086,77.418228 161.682739,77.173241 162.091232,76.847519 
	C162.575897,75.484467 162.652084,74.447144 162.728256,73.409821 
	C162.728256,73.409821 162.667786,73.179611 163.068848,72.845924 
	C163.543045,71.460609 163.616196,70.408981 163.689331,69.357353 
	C163.689331,69.357353 163.671799,69.156410 164.062820,68.858475 
	C167.290909,64.531113 176.624115,64.781403 180.971695,69.003494 
	C181.062988,69.158554 181.154297,69.313614 181.031128,69.825050 
	C180.989838,70.434761 181.163040,70.688110 181.336227,70.941460 
	C181.336227,70.941460 181.438492,71.124031 181.344055,71.544334 
	C181.487396,72.310486 181.725174,72.656334 181.962952,73.002182 
	C182.034988,73.161194 182.107040,73.320213 181.981644,73.837601 
	C181.959259,74.447998 182.134323,74.700035 182.309387,74.952072 
	C182.309387,74.952065 182.414459,75.121803 182.289459,75.652115 
	C183.105988,79.120186 184.047546,82.057945 184.989090,84.995712 
z"/>
<path fill="#EC647D" opacity="1.000000" stroke="none" 
	d="
M65.493195,62.415440 
	C71.178970,51.253986 76.744530,40.449200 82.165565,29.572380 
	C83.425789,27.043871 84.944489,25.886868 87.931969,26.021574 
	C93.743187,26.283602 99.574570,26.098316 105.892235,26.098316 
	C105.450134,27.474588 105.256653,28.559977 104.777184,29.499405 
	C89.793190,58.857723 74.820435,88.222076 59.660957,117.489685 
	C58.883881,118.989944 56.519932,120.432716 54.806419,120.544235 
	C49.003452,120.921928 43.160698,120.688332 35.673969,120.688332 
	C45.807190,100.883415 55.563770,81.814644 65.493195,62.415440 
z"/>
<path fill="#0B4253" opacity="1.000000" stroke="none" 
	d="
M127.617180,121.047531 
	C123.532143,120.794800 119.820435,120.911438 116.269890,120.211075 
	C109.286217,118.833504 106.346893,115.146873 106.261711,108.034866 
	C106.147972,98.537910 106.233170,89.038574 106.232941,79.540260 
	C106.232895,77.910515 106.232925,76.280769 106.232925,74.160812 
	C102.100845,74.160812 98.494629,74.160812 94.836411,74.160812 
	C95.775955,65.950279 97.576508,64.302490 106.000916,63.958179 
	C106.000916,58.594761 106.000916,53.176579 106.000916,47.406105 
	C111.406769,47.406105 116.302155,47.406105 121.792114,47.406105 
	C121.792114,52.667885 121.792114,58.061268 121.792114,63.837563 
	C126.293846,63.837563 130.232269,63.837563 134.601959,63.837563 
	C133.010071,70.898697 129.955246,75.447754 121.863197,74.156219 
	C121.863197,84.522354 121.758362,94.161644 121.913918,103.796730 
	C121.977684,107.745621 124.598480,109.479256 128.315796,108.991653 
	C132.542938,108.437164 133.575073,110.316246 133.282227,114.108345 
	C133.008102,117.657944 134.021851,121.886276 127.617180,121.047531 
M120.944252,85.552788 
	C120.944252,82.454086 120.944252,79.355385 120.944252,76.256683 
	C120.715668,76.271538 120.487083,76.286385 120.258499,76.301231 
	C120.258499,85.503258 120.258499,94.705292 120.258499,103.907318 
	C120.487038,103.908607 120.715569,103.909904 120.944107,103.911201 
	C120.944107,98.119553 120.944107,92.327896 120.944252,85.552788 
z"/>
<path fill="#2A4B5B" opacity="1.000000" stroke="none" 
	d="
M214.519623,69.245026 
	C213.071609,68.321236 211.883789,66.096169 210.781036,66.137573 
	C207.047302,66.277710 202.490189,63.983528 199.525818,68.915665 
	C199.541916,67.451965 199.914825,65.892708 200.314026,64.223488 
	C205.601791,64.223488 210.637634,64.223488 216.259598,64.223488 
	C215.729889,65.973061 215.274338,67.477722 214.519623,69.245026 
z"/>
<path fill="#2C4E5D" opacity="1.000000" stroke="none" 
	d="
M180.981720,68.593201 
	C176.624115,64.781403 167.290909,64.531113 164.136047,68.789124 
	C163.591446,65.342934 164.940277,63.448177 168.983200,63.970524 
	C171.251175,64.263550 173.611465,64.230965 175.888306,63.974060 
	C179.202286,63.600132 180.835587,64.905136 180.981720,68.593201 
z"/>
<path fill="#2A4B5B" opacity="1.000000" stroke="none" 
	d="
M209.689865,84.486542 
	C210.780746,79.966362 212.133133,75.188110 213.776962,70.202057 
	C212.696060,74.738998 211.323715,79.483734 209.689865,84.486542 
z"/>
<path fill="#2C4E5D" opacity="1.000000" stroke="none" 
	d="
M185.029602,84.590492 
	C184.047546,82.057945 183.105988,79.120186 182.261505,75.747925 
	C183.262405,78.270706 184.166260,81.227989 185.029602,84.590492 
z"/>
<path fill="#2C4E5D" opacity="1.000000" stroke="none" 
	d="
M151.684601,90.714554 
	C150.994766,89.453812 150.367294,87.854073 150.010437,86.079384 
	C150.769714,87.394798 151.258347,88.885178 151.684601,90.714554 
z"/>
<path fill="#2C4E5D" opacity="1.000000" stroke="none" 
	d="
M150.081787,84.611855 
	C149.396332,83.086403 148.739319,81.173820 148.173004,78.833298 
	C148.879211,80.345146 149.494736,82.284935 150.081787,84.611855 
z"/>
<path fill="#2C4E5D" opacity="1.000000" stroke="none" 
	d="
M155.775421,100.466911 
	C155.732239,101.047913 155.327042,101.789772 154.921844,102.531624 
	C154.593353,101.886787 154.264862,101.241951 153.990051,100.253632 
	C154.500305,100.149361 154.956863,100.388565 155.775421,100.466911 
z"/>
<path fill="#2C4E5D" opacity="1.000000" stroke="none" 
	d="
M157.474976,94.161911 
	C157.626923,94.849770 157.575790,95.796547 157.234314,96.872116 
	C157.053299,96.140884 157.162613,95.280853 157.474976,94.161911 
z"/>
<path fill="#2C4E5D" opacity="1.000000" stroke="none" 
	d="
M158.482819,90.167389 
	C158.620422,90.851974 158.562958,91.800331 158.212601,92.875298 
	C158.042374,92.144989 158.165054,91.288078 158.482819,90.167389 
z"/>
<path fill="#2C4E5D" opacity="1.000000" stroke="none" 
	d="
M153.914948,98.730583 
	C153.495560,98.416672 153.124741,97.813461 152.996918,97.059357 
	C153.481125,97.419411 153.722321,97.930351 153.914948,98.730583 
z"/>
<path fill="#2C4E5D" opacity="1.000000" stroke="none" 
	d="
M185.840652,87.739731 
	C185.440125,87.438568 185.055496,86.853790 184.899246,86.114273 
	C185.370590,86.458389 185.613571,86.957260 185.840652,87.739731 
z"/>
<path fill="#2C4E5D" opacity="1.000000" stroke="none" 
	d="
M162.485321,73.705917 
	C162.652084,74.447144 162.575897,75.484467 162.186157,76.766266 
	C161.995850,76.007828 162.119110,75.004921 162.485321,73.705917 
z"/>
<path fill="#2C4E5D" opacity="1.000000" stroke="none" 
	d="
M163.453918,69.664131 
	C163.616196,70.408981 163.543045,71.460609 163.152710,72.761475 
	C162.963150,71.997444 163.090820,70.984177 163.453918,69.664131 
z"/>
<path fill="#2C4E5D" opacity="1.000000" stroke="none" 
	d="
M161.487671,77.711998 
	C161.650742,78.454803 161.569382,79.491386 161.170731,80.767944 
	C160.983368,80.007210 161.113327,79.006493 161.487671,77.711998 
z"/>
<path fill="#2C4E5D" opacity="1.000000" stroke="none" 
	d="
M145.235840,66.624710 
	C144.951950,66.894249 144.683792,66.831154 144.020538,66.646896 
	C143.962112,66.057137 144.298813,65.588531 144.635513,65.119926 
	C144.840866,65.510643 145.046234,65.901360 145.235840,66.624710 
z"/>
<path fill="#2C4E5D" opacity="1.000000" stroke="none" 
	d="
M145.986282,69.659523 
	C145.678162,69.367271 145.407349,68.721985 145.234222,67.713638 
	C145.562469,68.002548 145.793030,68.654518 145.986282,69.659523 
z"/>
<path fill="#2C4E5D" opacity="1.000000" stroke="none" 
	d="
M159.202057,87.317215 
	C159.386368,87.606323 159.391693,88.197815 159.158035,88.896225 
	C158.953705,88.541962 158.988388,88.080780 159.202057,87.317215 
z"/>
<path fill="#2C4E5D" opacity="1.000000" stroke="none" 
	d="
M160.506470,81.694527 
	C160.706558,82.118347 160.689697,82.811722 160.417694,83.752457 
	C160.204880,83.321243 160.247192,82.642654 160.506470,81.694527 
z"/>
<path fill="#2C4E5D" opacity="1.000000" stroke="none" 
	d="
M147.917542,76.662903 
	C147.610504,76.379478 147.351669,75.754280 147.182861,74.778076 
	C147.503845,75.058426 147.734802,75.689774 147.917542,76.662903 
z"/>
<path fill="#2C4E5D" opacity="1.000000" stroke="none" 
	d="
M143.261017,66.858444 
	C143.386108,67.284805 143.300415,67.883614 142.890900,68.532547 
	C142.728134,68.065399 142.889191,67.548141 143.261017,66.858444 
z"/>
<path fill="#2C4E5D" opacity="1.000000" stroke="none" 
	d="
M181.399872,70.691895 
	C181.163040,70.688110 180.989838,70.434761 181.003464,70.093552 
	C181.281357,70.151222 181.372452,70.296776 181.399872,70.691895 
z"/>
<path fill="#2A4B5B" opacity="1.000000" stroke="none" 
	d="
M209.293396,85.779831 
	C208.977295,85.793144 208.805664,85.600891 208.668777,85.386452 
	C208.655334,85.365372 208.855286,85.208069 209.164612,85.081726 
	C209.397903,85.222328 209.422745,85.395195 209.293396,85.779831 
z"/>
<path fill="#2C4E5D" opacity="1.000000" stroke="none" 
	d="
M142.265625,68.822067 
	C142.416336,69.001595 142.364914,69.327347 142.090317,69.791145 
	C141.811874,69.584229 141.877304,69.263931 142.265625,68.822067 
z"/>
<path fill="#2C4E5D" opacity="1.000000" stroke="none" 
	d="
M141.694489,70.000702 
	C141.952454,70.211456 141.857971,70.505096 141.408142,70.874313 
	C141.111420,70.646721 141.207825,70.357948 141.694489,70.000702 
z"/>
<path fill="#2C4E5D" opacity="1.000000" stroke="none" 
	d="
M152.406570,93.617470 
	C152.177643,93.622589 152.001266,93.398621 152.006134,93.089737 
	C152.187378,93.004822 152.459122,93.388382 152.406570,93.617470 
z"/>
<path fill="#2C4E5D" opacity="1.000000" stroke="none" 
	d="
M182.360046,74.697098 
	C182.134323,74.700035 181.959259,74.447998 181.959778,74.098557 
	C182.227142,74.148132 182.318939,74.295135 182.360046,74.697098 
z"/>
<path fill="#2C4E5D" opacity="1.000000" stroke="none" 
	d="
M182.003967,72.684135 
	C181.725174,72.656334 181.487396,72.310486 181.307648,71.642433 
	C181.592117,71.668854 181.818542,72.017471 182.003967,72.684135 
z"/>
<path fill="#2C4E5D" opacity="1.000000" stroke="none" 
	d="
M156.592102,98.151306 
	C156.874649,98.194687 157.074402,98.338272 157.274170,98.481857 
	C157.157837,98.544724 157.041489,98.607590 156.737457,98.589386 
	C156.549774,98.508316 156.509323,98.251518 156.592102,98.151306 
z"/>
<path fill="#2C4E5D" opacity="1.000000" stroke="none" 
	d="
M156.359329,98.903435 
	C156.552765,99.049210 156.581436,99.381187 156.410110,99.886795 
	C156.059677,99.739143 156.054489,99.415543 156.359329,98.903435 
z"/>
<path fill="#2C4E5D" opacity="1.000000" stroke="none" 
	d="
M146.876740,72.708115 
	C146.624588,72.650253 146.430634,72.289558 146.334320,71.622177 
	C146.599609,71.678757 146.767288,72.042023 146.876740,72.708115 
z"/>
<path fill="#003044" opacity="1.000000" stroke="none" 
	d="
M120.944183,86.044518 
	C120.944107,92.327896 120.944107,98.119553 120.944107,103.911201 
	C120.715569,103.909904 120.487038,103.908607 120.258499,103.907318 
	C120.258499,94.705292 120.258499,85.503258 120.258499,76.301231 
	C120.487083,76.286385 120.715668,76.271538 120.944252,76.256683 
	C120.944252,79.355385 120.944252,82.454086 120.944183,86.044518 
z"/>
</svg>